<svg xmlns="http://www.w3.org/2000/svg" height="177.693" width="340.333" xml:space="preserve"><path style="fill:#347f63;fill-opacity:1;fill-rule:nonzero;stroke:none" d="M1060.38 28.191c-19 19.059-8.42 124.911-2.12 154.528 16.96 101.609 42.35 258.215 10.58 366.172-4.2 35.972-23.26 63.476-46.56 88.925-179.913-48.711-344.967 33.84-457.163 133.278-141.82 99.535-309 226.472-374.648 243.466C76.199 1042.02 0 1056.88 0 1056.88c150.328 260.29 368.289 300.55 645.57 264.53 378.82-63.49 465.6-232.82 478.31-421.207 4.25-46.527-12.71-148.144-67.72-228.547 65.59-86.793 86.78-175.676 71.97-319.605 48.68 67.719 57.14 82.539 86.78 97.363-42.32 279.383 65.59 588.406 677.26 607.466 463.52-31.74 618.05-317.505 660.38-459.333-129.11 8.48-256.09 0-484.69-120.625-283.61-177.82-554.5-211.652-829.68-65.594-125.92-90.297-106.19-388.847-105.82-406.398-44.46-19.04-71.98 23.261-71.98 23.261" transform="matrix(.13333 0 0 -.13333 0 177.693)"/></svg>